<?xml version="1.0" encoding="utf-8"?>
<!-- Generator: Adobe Illustrator 24.3.0, SVG Export Plug-In . SVG Version: 6.00 Build 0)  -->
<svg version="1.1" id="Camada_1" xmlns="http://www.w3.org/2000/svg" xmlns:xlink="http://www.w3.org/1999/xlink" x="0px" y="0px"
	 viewBox="0 0 500 144.8" style="enable-background:new 0 0 500 144.8;" xml:space="preserve">
<style type="text/css">
	.st0{fill-rule:evenodd;clip-rule:evenodd;fill:#D31217;}
</style>
<g>
	<path class="st0" d="M256.8,98.2c1.2-0.3,2.8-0.4,4-0.4c0.8,0,4.3,0.4,4.3,0.4V72.4h1.8l6.2,7.4l8.8,11.2c1.7,2.2,3.1,4.6,4.9,7
		c1.3,0,3.2-0.4,4.7-0.4c1.6,0,4.3,0.3,5.9,0.4l-10.3-12.8l-10.7-13.6c6.8-1.3,15.1-6,15.1-15.1c0-8-5.4-12.5-17.6-12.5h-17.2V98.2
		 M265,48.6c3.2-0.4,7.7-0.3,10.4,0.1c5.4,0.9,8,4.1,8,9c0,5.6-4,9.1-9.3,10.2c-3.7,0.7-8.1,0.4-9.1,0.3V48.6z M13.5,98.2
		c1.2-0.3,2.8-0.4,4-0.4c0.8,0,4.3,0.4,4.3,0.4V72.4h1.8l6.2,7.4l8.8,11.2c1.7,2.2,3.1,4.6,4.9,7c1.3,0,3.2-0.4,4.7-0.4
		c1.6,0,4.3,0.3,5.9,0.4L43.9,85.3L33.2,71.8c6.7-1.3,15.1-6,15.1-15.1c0-8-5.4-12.5-17.6-12.5H13.5V98.2z M21.8,48.6
		c3.2-0.4,7.7-0.3,10.4,0.1c5.5,0.9,8,4.1,8,9c0,5.6-4,9.1-9.3,10.2c-3.7,0.7-8.1,0.4-9.1,0.3V48.6z M226.4,49.4l10.7-0.1
		c2.6-0.1,10,1.1,10,1.1c-0.1-0.8-0.4-2.4-0.4-3.2c0-0.8,0.3-2.1,0.4-3h-28.6V98h29.2c-0.1-0.8-0.3-2-0.3-2.8c0-0.8,0.2-2.6,0.3-3.5
		c-2.5,0.4-9.5,0.9-12,1c-4.9,0.2-4.2,0.3-9.1,0.2v-21l7.4,0c2.4,0,9,0.4,11.4,0.4c-0.1-0.9-0.2-1.6-0.3-2.5c0-0.5,0.2-2.4,0.3-3.1
		c-2.4,0.2-7.2,0.5-9.6,0.5l-9.2,0V49.4z M205.6,44.1c-0.8,0.1-2.3,0.3-3,0.3c-0.8,0-2.2-0.2-2.9-0.3v39.3l-36.2-39.3h-4l0,54
		c0.7-0.1,1.3-0.2,2.1-0.4c1.3-0.3,3,0.3,3.8,0.4l0-40.6l33.4,36.5c1.7,1.9,2.5,2.7,3.4,3.9h3.4V44.1z M68.6,49.4l10.7-0.1
		c2.6-0.1,10,1.1,10,1.1c-0.1-0.8-0.5-2.4-0.5-3.2c0-0.8,0.3-2.1,0.4-3H60.6V98h29.2c-0.1-0.8-0.3-2-0.3-2.8c0-0.8,0.2-2.6,0.3-3.5
		c-2.5,0.4-9.5,0.9-12,1c-4.9,0.2-4.2,0.3-9.1,0.2v-21l7.4,0c2.4,0,9,0.4,11.4,0.4c-0.1-0.9-0.2-1.6-0.3-2.5c0-0.5,0.2-2.4,0.3-3.1
		c-2.4,0.2-7.2,0.5-9.6,0.5l-9.2,0V49.4z M145.9,44.1c-0.8,0.1-2.3,0.3-3,0.3c-0.8,0-2.2-0.2-2.9-0.3v39.3l-36.2-39.3h-4l0,54
		c0.7-0.1,1.3-0.2,2.1-0.4c1.3-0.3,3,0.3,3.8,0.4l0-40.6l33.4,36.5c1.7,1.9,2.5,2.7,3.4,3.9h3.4V44.1z"/>
	<g>
		<g>
			<path d="M309.4,47.4c2.2-9.5,5.2-15.4,10.8-20.9c6.8-6.5,13.5-9.3,18.8-9.3c6.3,0,9,2.5,9,5.3c0,2.5-3,6.7-4.8,7.7
				c-1.2,0.6-2,0.8-3-0.4c-3.3-3.9-6.2-6-8.3-6c-2.7,0-4.8,1.3-8.2,23.5h12.5l-2.6,5.2c-1.9,0.2-8.7,0.7-10.8,0.7
				c-1.8,10.6-3.2,20.2-6.2,35.5c-3.9,19.2-10.6,26.3-18.6,32.8c-4.9,4.2-10,6.1-13,6.1c-4.5,0-8.3-2.8-8.1-5.9
				c0-2.8,2.3-6.3,4.3-7.9c0.9-0.7,1.6-0.7,2.2-0.2c3.3,2.8,7.3,5.3,9.6,5.3c4.9,0,5.5-7.7,8.7-26.9c2.7-16,4.5-26.3,6.5-38.9h-9.1
				l-0.6-1.3l3.6-4.6H309.4z"/>
			<path d="M375,65.1c0,12.1-5.6,24.5-17,31.1c-4.5,2.7-10.1,4.7-16,4.7c-14.1,0-17.8-10.6-17.8-19.2c0-16.7,9.6-28.4,21.6-33.3
				c3.9-1.5,8.2-2.3,11.7-2.3C369.3,46,375,53.7,375,65.1z M339.6,82.3c0,9,2.8,13.3,7.3,13.3c8.1,0,12.9-16.9,12.9-31.3
				c0-9.1-2.8-13.1-7-13.1C342.4,51.2,339.6,73.8,339.6,82.3z"/>
			<path d="M408.6,52.6c-1.8,0.2-7.9,0.6-11.1,0.7c-5.5,26.5-5.3,25.1-6.5,31.8c-0.8,4.3-0.2,5.3,0.8,5.3c2.2,0,6.1-2.6,9.7-6.7
				l1.9,3.6c-4.6,6.2-13.8,13.6-21.1,13.6c-5.5,0-7.9-4.1-5-16.8l6.6-30.8h-9.1l-0.2-1.1l3.6-4.8h7l2.6-12.2c4-2,10.8-5.5,14.1-8.1
				l1.8,1.1c-1.3,4.2-3.5,13.1-4.8,19.2h12.4L408.6,52.6z"/>
			<path d="M453.2,65.1c0,12.1-5.6,24.5-17,31.1c-4.5,2.7-10.1,4.7-16,4.7c-14.1,0-17.8-10.6-17.8-19.2c0-16.7,9.6-28.4,21.6-33.3
				c3.9-1.5,8.2-2.3,11.7-2.3C447.4,46,453.2,53.7,453.2,65.1z M417.7,82.3c0,9,2.8,13.3,7.3,13.3c8.1,0,12.9-16.9,12.9-31.3
				c0-9.1-2.8-13.1-7-13.1C420.6,51.2,417.7,73.8,417.7,82.3z"/>
			<path d="M488.9,53.5c0,2.6-1.8,5.5-4.6,6.9c-1.5,0.7-2.3,0.6-4-0.9c-3.6-3.9-6.5-6.3-9.7-6.3c-3.4,0-4.9,2.5-4.8,4.8
				c0,3,3.8,5.5,8.1,8.7c6.8,4.9,11.8,8.2,11.8,14.7c0,10.7-16.1,19.6-24.3,19.6c-6.5,0-13.1-4.1-13.4-9.5c-0.1-2.8,2.8-6.7,5.6-7.6
				c1.1-0.4,1.8,0,2.9,1.3c4,5,9,8.6,13,8.6c3,0,5-2.2,5-4.8c0-2.5-1.1-4.6-7-8.9c-5.9-4.1-12.1-7.9-12.1-15.1c0-4.5,2.1-8.7,7.5-13
				c4.6-3.5,10.3-5.7,15-5.7C484.2,46,488.9,49.4,488.9,53.5z"/>
		</g>
	</g>
</g>
</svg>
