<?xml version="1.0" encoding="utf-8"?>
<!-- Generator: Adobe Illustrator 24.3.0, SVG Export Plug-In . SVG Version: 6.00 Build 0)  -->
<svg version="1.1" id="Camada_1" xmlns="http://www.w3.org/2000/svg" xmlns:xlink="http://www.w3.org/1999/xlink" x="0px" y="0px"
	 viewBox="0 0 500 500" style="enable-background:new 0 0 500 500;" xml:space="preserve">
<style type="text/css">
	.st0{fill:#1D1D1E;}
	.st1{font-family:'Tahoma';}
	.st2{font-size:91.7805px;}
	.st3{fill-rule:evenodd;clip-rule:evenodd;fill:#D3D3D3;}
</style>
<g>
	<text transform="matrix(1 0 0 1 141.703 374.7483)" class="st0 st1 st2">Fotos</text>
	<g>
		<path class="st3" d="M263,141.7c0,0-4.3-0.7-8.1,0.5c-16.2,4.4-21.1,28.6-26.7,45.7c-0.6-10.7-0.1-14.3-2-25
			c-0.9-5.3-5.9-14-19.9-5.6c-11.7,6.7-20.2,25.2-20.7,31.9c1.1,3.7,3.9,1.1,3.9,1.1c5.1-6.8,4.1-11,9.2-15.8c3.9-3.6,5.7,1,5.9,2.7
			c1,2.8-1,59.8-1,59.8s-0.1,3.7,4.9,2.7l14.6-4.1c4.3-1.7,5.3-4.7,5.3-4.7c2.8-13.9,4.1-30.3,4.1-30.3s2.7-20.2,10.5-36.2
			c1.5-3,5.4-4.5,7-2.5c2.5,6,4.7,9.2,11.3,8.4C272.2,168.9,279.4,146.6,263,141.7z"/>
		<g>
			<path class="st0" d="M259.3,139.5c0,0-4.3-0.4-8,1.1c-15.9,5.6-19,30-23.3,47.5c-1.4-10.6-1.1-14.3-3.8-24.8
				c-1.3-5.2-6.9-13.6-20.3-4.2c-11.2,7.6-18.3,26.6-18.4,33.3c1.3,3.6,4,0.8,4,0.8c4.6-7.1,3.2-11.3,8-16.5
				c3.6-3.9,5.8,0.6,6.1,2.3c1.2,2.8,3.3,59.8,3.3,59.8s0.2,3.7,5,2.3l14.2-5.2c4.2-2,5-5.1,5-5.1c1.7-14.1,1.9-30.5,1.9-30.5
				s1.2-20.4,7.8-36.9c1.3-3.1,5-4.9,6.8-3c2.9,5.8,5.3,8.9,11.9,7.6C270.5,166,276.1,143.2,259.3,139.5z"/>
		</g>
	</g>
	<g>
		<g>
			<path class="st0" d="M283.2,225.1c1.5-4.2,3.1-6.7,5.9-8.9c3.4-2.6,6.6-3.6,9-3.3c2.9,0.3,4,1.5,3.8,2.8
				c-0.1,1.1-1.7,2.9-2.5,3.3c-0.6,0.2-0.9,0.3-1.4-0.3c-1.3-1.9-2.5-3-3.5-3.1c-1.2-0.1-2.1,0.2-4.8,10.3l8.5,0.9l1.6-4.7
				c1.9-0.7,5.2-1.9,6.8-2.9l0.7,0.6c-0.8,1.9-2,5-2.9,7.7l5.6,0.6l-1.4,2.2c-0.8,0-3.6-0.1-5.1-0.2c-3.8,11.8-3.6,11.1-4.4,14.1
				c-0.6,1.9-0.4,2.4,0.1,2.4c1,0.1,2.9-0.9,4.7-2.6l0.7,1.7c-2.4,2.6-6.9,5.5-10.2,5.2c-2.5-0.3-3.3-2.2-1.5-7.8l4.5-13.7l-8.3-0.9
				c-1.3,4.6-2.5,9-4.6,15.8c-2.7,8.5-6,11.4-10,14c-2.4,1.7-4.8,2.3-6.2,2.1c-2-0.2-3.6-1.7-3.4-3c0.1-1.3,1.4-2.8,2.3-3.4
				c0.5-0.3,0.8-0.2,1,0c1.4,1.4,3,2.7,4.1,2.9c2.2,0.2,2.8-3.3,5.2-11.8c2-7.1,3.3-12.3,4.8-17.4l-4.2-0.4l-0.2-0.6l1.9-1.9
				L283.2,225.1z"/>
			<path class="st0" d="M322.6,232c-0.1,1.2-1.1,2.4-2.4,2.9c-0.7,0.2-1.1,0.2-1.8-0.6c-1.5-1.9-2.6-3.2-4.1-3.3
				c-1.5-0.2-2.4,0.9-2.4,2c-0.1,1.4,1.4,2.7,3.3,4.3c2.8,2.6,5,4.3,4.7,7.2c-0.5,4.8-8.2,8.1-11.9,7.7c-2.9-0.3-5.8-2.5-5.6-4.9
				c0.1-1.3,1.6-2.9,2.9-3.2c0.5-0.1,0.8,0.1,1.3,0.7c1.6,2.5,3.7,4.3,5.5,4.5c1.4,0.1,2.4-0.8,2.5-1.9c0.1-1.1-0.3-2.1-2.8-4.4
				c-2.5-2.1-5.1-4.1-4.8-7.4c0.2-2,1.4-3.8,4-5.5c2.2-1.4,5-2.1,7.1-1.9C320.8,228.4,322.8,230.2,322.6,232z"/>
		</g>
	</g>
	<g>
		<g>
			<path class="st0" d="M298.8,108.7l8.5,75l-59.5-6.3L243,177l-0.5,4.8l-9.3,88.1l-69,7.8L147,125.9L298.8,108.7 M303.1,103.4
				l-161.4,18.2L159.9,283l77.7-8.8l9.7-91.9l65.4,6.9L303.1,103.4L303.1,103.4z"/>
		</g>
	</g>
	<g>
		<g>
			<path class="st0" d="M249.1,185.8L353,196.7l-9.7,92.4l-103.9-10.9L249.1,185.8 M244.8,180.5l-10.7,102l113.5,11.9l10.7-102
				L244.8,180.5L244.8,180.5z"/>
		</g>
	</g>
</g>
</svg>
