<?xml version="1.0" encoding="utf-8"?>
<!-- Generator: Adobe Illustrator 24.3.0, SVG Export Plug-In . SVG Version: 6.00 Build 0)  -->
<svg version="1.1" id="Camada_1" xmlns="http://www.w3.org/2000/svg" xmlns:xlink="http://www.w3.org/1999/xlink" x="0px" y="0px"
	 viewBox="0 0 500 500" style="enable-background:new 0 0 500 500;" xml:space="preserve">
<style type="text/css">
	.st0{fill:#1D1D1E;}
	.st1{fill:none;stroke:#000000;stroke-width:6.2589;stroke-miterlimit:10;}
	.st2{font-family:'Tahoma';}
	.st3{font-size:58.156px;}
</style>
<g>
	<g>
		<g>
			<path class="st0" d="M268.6,190.2c0,0-2.4-1-4.8-0.8c-10.2,0.3-16.5,14-22.3,23.3c1.1-6.4,2-8.5,2.3-15.1c0.2-3.3-1.5-9.1-11-6.2
				c-7.9,2.3-15.5,12.1-16.8,16c0.1,2.3,2.2,1.2,2.2,1.2c4-3.3,4-6,7.7-8.1c2.8-1.6,3.3,1.4,3.1,2.5c0.2,1.8-9.1,35.3-9.1,35.3
				s-0.6,2.2,2.5,2.3l9.2-0.4c2.8-0.4,3.8-2,3.8-2c3.6-7.9,6.7-17.4,6.7-17.4s4.5-11.6,11.3-20c1.3-1.6,3.8-1.9,4.5-0.5
				c0.6,3.9,1.5,6.1,5.5,6.6C270.2,207.6,277.7,195.4,268.6,190.2z"/>
		</g>
		<g>
			<path d="M308.7,153.3l17.4,114.9H184.3l10.6-114.9H308.7 M314.1,147H189.2l-11.8,127.4h155.9L314.1,147L314.1,147z"/>
		</g>
		<path class="st1" d="M297,149.1l-11.4,125.3L297,149.1z"/>
		<path class="st1" d="M223,166v-38.6c0-10.6,8.5-19.1,19-19.1c10.6,0,19.1,8.5,19.1,19.1V166"/>
		<path class="st1" d="M249.8,147v-19.5c0-10.6,8.5-19.1,19-19.1c10.6,0,19.1,8.5,19.1,19.1V147"/>
	</g>
	<text transform="matrix(1 0 0 1 94.3876 374.657)" class="st0 st2 st3">Voltar a Loja</text>
</g>
</svg>
